<svg width="365.534375px" height="121.39999999999999px" xmlns="http://www.w3.org/2000/svg" viewBox="67.2328125 14.300000000000004 365.534375 121.39999999999999" style="background: rgba(0, 0, 0, 0);" preserveAspectRatio="xMidYMid"><defs><filter id="editing-jagged" x="-100%" y="-100%" width="300%" height="300%"><feTurbulence result="turb" baseFrequency="0.1" numOctaves="1" seed="1"></feTurbulence><feDisplacementMap in="SourceGraphic" in2="turb" scale="10"></feDisplacementMap></filter></defs><g filter="url(#editing-jagged)"><g transform="translate(124.74998167157173, 104.1200008392334)"><path d="M0.45-0.32L0.45-0.32L8.51-42.24L8.51-42.24Q16.06-42.88 20.93-42.88L20.93-42.88L20.93-42.88Q25.79-42.88 28.93-42.46L28.93-42.46L28.93-42.46Q32.06-42.05 34.18-40.96L34.18-40.96L34.18-40.96Q38.40-38.91 38.40-33.28L38.40-33.28L38.40-33.28Q38.40-30.02 35.58-27.26L35.58-27.26L35.58-27.26Q32.96-24.77 30.08-24.19L30.08-24.19L30.08-24.19Q33.15-23.68 35.33-21.38L35.33-21.38L35.33-21.38Q37.63-18.94 37.63-15.17L37.63-15.17L37.63-15.17Q37.63-7.87 32.19-3.62L32.19-3.62L32.19-3.62Q26.75 0.64 16.06 0.64L16.06 0.64L16.06 0.64Q8.70 0.64 0.45-0.32ZM17.86-20.61L14.66-4.03L14.66-4.03Q15.23-3.97 15.36-3.97L15.36-3.97L15.94-3.97L15.94-3.97Q21.18-3.97 23.42-7.42L23.42-7.42L23.42-7.42Q25.09-10.11 25.09-15.04L25.09-15.04L25.09-15.04Q25.09-17.66 23.39-19.07L23.39-19.07L23.39-19.07Q21.70-20.48 17.86-20.61L17.86-20.61ZM27.58-33.22L27.58-33.22L27.58-33.22Q27.58-38.53 22.46-38.53L22.46-38.53L21.89-38.53L21.89-38.53Q21.63-38.53 21.25-38.46L21.25-38.46L18.69-24.96L19.33-24.96L19.33-24.96Q27.58-25.15 27.58-33.22ZM55.81 1.28L55.81 1.28L55.81 1.28Q41.73 1.28 41.73-11.97L41.73-11.97L41.73-11.97Q41.73-21.38 46.91-27.46L46.91-27.46L46.91-27.46Q52.42-33.92 61.95-33.92L61.95-33.92L61.95-33.92Q68.86-33.92 72.38-30.72L72.38-30.72L72.38-30.72Q75.90-27.52 75.90-20.80L75.90-20.80L75.90-20.80Q75.90-10.56 70.40-4.61L70.40-4.61L70.40-4.61Q65.02 1.28 55.81 1.28ZM57.47-26.56L57.47-26.56L57.47-26.56Q56.70-24.83 56.10-22.24L56.10-22.24L56.10-22.24Q55.49-19.65 54.72-15.55L54.72-15.55L54.72-15.55Q53.95-11.46 53.95-6.40L53.95-6.40L53.95-6.40Q53.95-4.74 54.50-3.65L54.50-3.65L54.50-3.65Q55.04-2.56 56.51-2.56L56.51-2.56L56.51-2.56Q57.98-2.56 58.91-3.26L58.91-3.26L58.91-3.26Q59.84-3.97 60.54-5.63L60.54-5.63L60.54-5.63Q61.82-8.58 62.85-14.05L62.85-14.05L62.85-14.05Q63.87-19.52 63.97-21.89L63.97-21.89L63.97-21.89Q64.06-24.26 64.06-26.02L64.06-26.02L64.06-26.02Q64.06-27.78 63.55-28.93L63.55-28.93L63.55-28.93Q63.04-30.08 61.60-30.08L61.60-30.08L61.60-30.08Q60.16-30.08 59.20-29.18L59.20-29.18L59.20-29.18Q58.24-28.29 57.47-26.56ZM80.70-6.40L80.70-6.40L80.70-6.40Q80.70-8.13 81.60-12.48L81.60-12.48L84.99-29.76L81.22-29.76L81.47-31.68L81.47-31.68Q89.15-33.98 96.58-39.62L96.58-39.62L99.65-39.62L98.11-32.64L103.10-32.64L102.53-29.76L97.60-29.76L94.34-12.48L94.34-12.48Q93.50-8.51 93.50-7.17L93.50-7.17L93.50-7.17Q93.50-4.10 96.19-3.46L96.19-3.46L96.19-3.46Q95.55-1.28 93.25 0L93.25 0L93.25 0Q90.94 1.28 87.68 1.28L87.68 1.28L87.68 1.28Q84.42 1.28 82.56-0.77L82.56-0.77L82.56-0.77Q80.70-2.82 80.70-6.40ZM118.14-3.52L118.14-3.52L118.14-3.52Q116.16 1.28 109.82 1.28L109.82 1.28L109.82 1.28Q106.56 1.28 104.51-0.96L104.51-0.96L104.51-0.96Q102.78-2.94 102.78-4.93L102.78-4.93L102.78-4.93Q102.78-10.11 105.15-20.22L105.15-20.22L107.52-32.64L120.51-33.92L116.61-13.70L116.61-13.70Q115.52-8.96 115.52-7.30L115.52-7.30L115.52-7.30Q115.52-3.65 118.14-3.52ZM108.67-41.54L108.67-41.54L108.67-41.54Q108.67-44.03 110.75-45.38L110.75-45.38L110.75-45.38Q112.83-46.72 115.84-46.72L115.84-46.72L115.84-46.72Q118.85-46.72 120.67-45.38L120.67-45.38L120.67-45.38Q122.50-44.03 122.50-41.54L122.50-41.54L122.50-41.54Q122.50-39.04 120.48-37.76L120.48-37.76L120.48-37.76Q118.46-36.48 115.46-36.48L115.46-36.48L115.46-36.48Q112.45-36.48 110.56-37.76L110.56-37.76L110.56-37.76Q108.67-39.04 108.67-41.54ZM143.62-17.98L143.62-17.98L143.62-17.98Q145.92-22.08 145.92-26.24L145.92-26.24L145.92-26.24Q145.92-28.99 143.94-28.99L143.94-28.99L143.94-28.99Q142.40-28.99 140.80-26.37L140.80-26.37L140.80-26.37Q139.14-23.74 138.62-20.35L138.62-20.35L135.30 0L122.05 1.28L128.58-32.64L139.14-33.92L137.98-27.46L137.98-27.46Q141.12-33.92 148.16-33.92L148.16-33.92L148.16-33.92Q151.87-33.92 153.89-32L153.89-32L153.89-32Q155.90-30.08 155.90-26.14L155.90-26.14L155.90-26.14Q155.90-22.21 153.31-19.71L153.31-19.71L153.31-19.71Q150.72-17.22 146.30-17.22L146.30-17.22L146.30-17.22Q144.38-17.22 143.62-17.98ZM148.03 7.62L148.03 7.62L148.03 7.62Q151.36 7.36 153.79 3.20L153.79 3.20L153.79 3.20Q155.65 0 156.86-5.89L156.86-5.89L162.05-32.64L174.91-33.92L169.47-5.89L169.47-5.89Q167.36 4.80 164.10 8.32L164.10 8.32L164.10 8.32Q162.37 10.24 160.13 10.88L160.13 10.88L160.13 10.88Q157.89 11.52 155.33 11.52L155.33 11.52L155.33 11.52Q149.95 11.52 148.03 7.62ZM163.07-41.54L163.07-41.54L163.07-41.54Q163.07-44.03 165.15-45.38L165.15-45.38L165.15-45.38Q167.23-46.72 170.24-46.72L170.24-46.72L170.24-46.72Q173.25-46.72 175.07-45.38L175.07-45.38L175.07-45.38Q176.90-44.03 176.90-41.54L176.90-41.54L176.90-41.54Q176.90-39.04 174.88-37.76L174.88-37.76L174.88-37.76Q172.86-36.48 169.86-36.48L169.86-36.48L169.86-36.48Q166.85-36.48 164.96-37.76L164.96-37.76L164.96-37.76Q163.07-39.04 163.07-41.54ZM191.17 1.28L191.17 1.28L191.17 1.28Q177.09 1.28 177.09-11.97L177.09-11.97L177.09-11.97Q177.09-21.38 182.27-27.46L182.27-27.46L182.27-27.46Q187.78-33.92 197.31-33.92L197.31-33.92L197.31-33.92Q204.22-33.92 207.74-30.72L207.74-30.72L207.74-30.72Q211.26-27.52 211.26-20.80L211.26-20.80L211.26-20.80Q211.26-10.56 205.76-4.61L205.76-4.61L205.76-4.61Q200.38 1.28 191.17 1.28ZM192.83-26.56L192.83-26.56L192.83-26.56Q192.06-24.83 191.46-22.24L191.46-22.24L191.46-22.24Q190.85-19.65 190.08-15.55L190.08-15.55L190.08-15.55Q189.31-11.46 189.31-6.40L189.31-6.40L189.31-6.40Q189.31-4.74 189.86-3.65L189.86-3.65L189.86-3.65Q190.40-2.56 191.87-2.56L191.87-2.56L191.87-2.56Q193.34-2.56 194.27-3.26L194.27-3.26L194.27-3.26Q195.20-3.97 195.90-5.63L195.90-5.63L195.90-5.63Q197.18-8.58 198.21-14.05L198.21-14.05L198.21-14.05Q199.23-19.52 199.33-21.89L199.33-21.89L199.33-21.89Q199.42-24.26 199.42-26.02L199.42-26.02L199.42-26.02Q199.42-27.78 198.91-28.93L198.91-28.93L198.91-28.93Q198.40-30.08 196.96-30.08L196.96-30.08L196.96-30.08Q195.52-30.08 194.56-29.18L194.56-29.18L194.56-29.18Q193.60-28.29 192.83-26.56ZM242.11 1.28L242.11 1.28L242.11 1.28Q234.37 1.28 234.37-4.74L234.37-4.74L234.37-4.74Q234.43-6.40 234.94-9.22L234.94-9.22L236.10-15.10L236.10-15.10Q237.82-23.42 237.82-25.28L237.82-25.28L237.82-25.28Q237.82-28.99 235.65-28.99L235.65-28.99L235.65-28.99Q232-28.99 230.08-19.46L230.08-19.46L226.30 0L213.44 1.28L220.10-32.70L230.59-33.92L229.57-27.65L229.57-27.65Q232.58-33.92 241.79-33.92L241.79-33.92L241.79-33.92Q246.27-33.92 248.16-32.03L248.16-32.03L248.16-32.03Q250.05-30.14 250.05-25.92L250.05-25.92L250.05-25.92Q250.05-21.95 248-12.67L248-12.67L248-12.67Q247.04-8.51 247.04-6.94L247.04-6.94L247.04-6.94Q247.04-5.38 247.90-4.48L247.90-4.48L247.90-4.48Q248.77-3.58 250.05-3.46L250.05-3.46L250.05-3.46Q249.41-1.28 247.20 0L247.20 0L247.20 0Q244.99 1.28 242.11 1.28Z" fill="#444"></path></g></g><style>text {
  font-size: 64px;
  font-family: Arial Black;
  dominant-baseline: central;
  text-anchor: middle;
}</style></svg>